<mxfile host="app.diagrams.net" modified="2023-01-05T21:41:41.388Z" agent="5.0 (X11)" etag="ZKdu8Sg8beJs8MVwqldK" version="20.8.1" type="github">
  <diagram id="a45cf8ec-cd66-6f27-3ac3-be6e809c9e4a" name="Page-1">
    <mxGraphModel dx="2387" dy="1303" grid="1" gridSize="10" guides="1" tooltips="1" connect="1" arrows="1" fold="1" page="1" pageScale="1" pageWidth="827" pageHeight="1169" background="none" math="0" shadow="0">
      <root>
        <mxCell id="0" />
        <mxCell id="1" parent="0" />
        <mxCell id="168" value="&lt;div&gt;Home Network Diagram&lt;br&gt;&lt;/div&gt;" style="text;html=1;strokeColor=none;fillColor=none;align=center;verticalAlign=middle;whiteSpace=wrap;overflow=hidden;shadow=0;fontSize=36;fontColor=#AE4132;fontStyle=0" parent="1" vertex="1">
          <mxGeometry x="137" y="15" width="1380" height="45" as="geometry" />
        </mxCell>
        <mxCell id="gFrrfVSp8Z1BBpCpCSM7-168" value="" style="ellipse;shape=cloud;whiteSpace=wrap;html=1;" vertex="1" parent="1">
          <mxGeometry x="70" y="120" width="420" height="310" as="geometry" />
        </mxCell>
        <mxCell id="gFrrfVSp8Z1BBpCpCSM7-169" value="&lt;div style=&quot;font-size: 23px;&quot;&gt;&lt;font style=&quot;font-size: 23px;&quot;&gt;Internet&lt;/font&gt;&lt;/div&gt;" style="text;html=1;strokeColor=none;fillColor=none;align=center;verticalAlign=middle;whiteSpace=wrap;rounded=0;" vertex="1" parent="1">
          <mxGeometry x="190" y="160" width="130" height="50" as="geometry" />
        </mxCell>
        <mxCell id="gFrrfVSp8Z1BBpCpCSM7-170" value="" style="fontColor=#0066CC;verticalAlign=top;verticalLabelPosition=bottom;labelPosition=center;align=center;html=1;outlineConnect=0;fillColor=#CCCCCC;strokeColor=#6881B3;gradientColor=none;gradientDirection=north;strokeWidth=2;shape=mxgraph.networks.server;fontSize=23;" vertex="1" parent="1">
          <mxGeometry x="270" y="220" width="90" height="100" as="geometry" />
        </mxCell>
        <mxCell id="gFrrfVSp8Z1BBpCpCSM7-171" value="&lt;font style=&quot;font-size: 12px;&quot;&gt;door.bguth.de&lt;/font&gt;" style="text;html=1;strokeColor=none;fillColor=none;align=center;verticalAlign=middle;whiteSpace=wrap;rounded=0;fontSize=23;" vertex="1" parent="1">
          <mxGeometry x="262.5" y="310" width="105" height="30" as="geometry" />
        </mxCell>
        <mxCell id="gFrrfVSp8Z1BBpCpCSM7-173" value="" style="rounded=0;whiteSpace=wrap;html=1;fontSize=12;" vertex="1" parent="1">
          <mxGeometry x="520" y="80" width="1080" height="1150" as="geometry" />
        </mxCell>
        <mxCell id="gFrrfVSp8Z1BBpCpCSM7-174" value="&lt;font style=&quot;font-size: 23px;&quot;&gt;Home&lt;/font&gt;" style="text;html=1;strokeColor=none;fillColor=none;align=center;verticalAlign=middle;whiteSpace=wrap;rounded=0;fontSize=12;" vertex="1" parent="1">
          <mxGeometry x="1030" y="90" width="60" height="30" as="geometry" />
        </mxCell>
        <mxCell id="gFrrfVSp8Z1BBpCpCSM7-176" value="" style="rounded=1;whiteSpace=wrap;html=1;fontSize=23;fillColor=#f8cecc;strokeColor=#b85450;" vertex="1" parent="1">
          <mxGeometry x="570" y="140" width="280" height="250" as="geometry" />
        </mxCell>
        <mxCell id="gFrrfVSp8Z1BBpCpCSM7-178" value="&lt;div&gt;192.168.178.0/24&lt;/div&gt;" style="text;html=1;strokeColor=none;fillColor=none;align=center;verticalAlign=middle;whiteSpace=wrap;rounded=0;fontSize=12;" vertex="1" parent="1">
          <mxGeometry x="645" y="150" width="130" height="30" as="geometry" />
        </mxCell>
      </root>
    </mxGraphModel>
  </diagram>
</mxfile>
